# xmcd
#
# Track frame offsets: 
#        150
#        18103
#        31930
#        54062
#        73365
#        85817
#        103070
#        127660
#        146990
#        161884
#        183058
#        197787
#        217347
#
# Disc length: 3101 seconds
#
# Revision: 0
# Processed by: cddbd v1.5.2PL0 Copyright (c) Steve Scherf et al.
# Submitted via: ExactAudioCopy v0.99pb4
#
DISCID=b60c1b0d
DTITLE=Rita Eriksen - Hjerteslag
DYEAR=2008
DGENRE=Pop
TTITLE0=Eg Kalle Deg Venn
TTITLE1=Karl Johan
TTITLE2=Di Eina
TTITLE3=Det Lys Som Alltid Skinne
TTITLE4=Han Va Som Våren
TTITLE5=Morgengry
TTITLE6=Alexandra Reise
TTITLE7=Aller Sista Vers
TTITLE8=Gjenferd I Mi Sjel
TTITLE9=Den Verste Vinter
TTITLE10=Du Va Der For Meg
TTITLE11=Mine Tårer
TTITLE12=Eg Vandra Langs Med Elvå
EXTD=
EXTT0=
EXTT1=
EXTT2=
EXTT3=
EXTT4=
EXTT5=
EXTT6=
EXTT7=
EXTT8=
EXTT9=
EXTT10=
EXTT11=
EXTT12=
PLAYORDER=
